<svg xmlns="http://www.w3.org/2000/svg" width="98.5" height="105.665" viewBox="0 0 98.5 105.665">
  <g id="Group_4565" data-name="Group 4565" transform="translate(-16 -16)">
    <path id="Path_44276" data-name="Path 44276" d="M181.868,146.577h0a41.2,41.2,0,0,0,21.8,6.8h27.452L189.98,82.146l-.164-.328a9.247,9.247,0,0,0-7.129-4.427,9.815,9.815,0,0,0-1.557,0A9.247,9.247,0,0,0,174,81.819l-36.466,63.119L132.7,153.38h26.469A41.89,41.89,0,0,0,181.868,146.577Zm-40.645.41,36.3-62.873.164-.246a4.843,4.843,0,0,1,3.934-2.377h.82a5.116,5.116,0,0,1,3.851,2.377l37.7,65.332H203.748a36.74,36.74,0,0,1-18.274-5.328,41.344,41.344,0,0,0,9.342-10.984.621.621,0,0,0,.164-.328v-.082c.082-.082.082-.164.164-.246a14.725,14.725,0,0,0,1.8-7.214,15.078,15.078,0,1,0-28.517,6.886c0,.082.082.164.082.246.082.082.082.164.164.246s.082.164.164.246h0a.622.622,0,0,1,.164.328l.164.246h0A39.1,39.1,0,0,0,175.23,141l2.95-2.869A35.226,35.226,0,0,1,172.69,131l-.164-.328-.082-.082a.08.08,0,0,0-.082-.082l-.082-.082h0v-.082h0v-.082a.08.08,0,0,0-.082-.082l-.082-.164a10.878,10.878,0,0,1,.246-10.492,11,11,0,0,1,19.094.082,10.613,10.613,0,0,1,1.475,5.492,11.567,11.567,0,0,1-1.311,5.246c0,.082-.082.164-.082.246l-.082.082c0,.082-.082.082-.082.164v.082A36.32,36.32,0,0,1,180.8,142.4h0a2.874,2.874,0,0,1-.656.41.08.08,0,0,0-.082.082c-.082,0-.082.082-.164.082l-.246.164h0a37.419,37.419,0,0,1-20.4,6.066H140.075Z" transform="translate(-116.7 -61.355)" fill="#1d5189"/>
    <rect id="Rectangle_4182" data-name="Rectangle 4182" width="98.499" height="3.275" transform="translate(16 97.739)" fill="#1d5189"/>
    <path id="Path_44277" data-name="Path 44277" d="M171.535,194.468c0-3.275-1.8-4.913-4.5-4.913-2.784,0-4.749,1.8-4.749,5.322v7.942h-1.965v-8.352c0-3.275-1.8-4.913-4.5-4.913-2.784,0-4.749,1.8-4.749,5.322v7.942H149.1V188.246h1.965v2.538A5.486,5.486,0,0,1,156.142,188a5.624,5.624,0,0,1,5.65,3.6,5.625,5.625,0,0,1,5.568-3.6c3.439,0,6.141,2.047,6.141,6.3v8.515h-1.965Z" transform="translate(-119.671 -81.318)" fill="#1d5189"/>
    <path id="Path_44278" data-name="Path 44278" d="M184.2,188.3h1.965v14.575H184.2Z" transform="translate(-125.999 -81.373)" fill="#1d5189"/>
    <path id="Path_44279" data-name="Path 44279" d="M194.965,202.82H193V188.246h1.965v2.62c.819-1.8,2.62-2.866,5.24-2.866v1.965h-.573c-2.538,0-4.749,1.064-4.749,4.749v8.106Z" transform="translate(-127.585 -81.318)" fill="#1d5189"/>
    <path id="Path_44280" data-name="Path 44280" d="M208.465,202.82H206.5V188.246h1.965v2.62c.819-1.8,2.62-2.866,5.24-2.866v1.965h-.573c-2.538,0-4.749,1.064-4.749,4.749v8.106Z" transform="translate(-130.02 -81.318)" fill="#1d5189"/>
    <path id="Path_44281" data-name="Path 44281" d="M225.169,188c3.111,0,5.24,1.556,6.059,3.439v-3.193h1.965V202.82h0a1.923,1.923,0,0,1-1.965-1.883v-1.392a6.515,6.515,0,0,1-6.141,3.439c-4.176,0-7.287-2.948-7.287-7.533A7.071,7.071,0,0,1,225.169,188Zm.328,1.638a5.436,5.436,0,0,0-5.732,5.814,5.5,5.5,0,0,0,5.732,5.9,5.589,5.589,0,0,0,5.731-5.9A5.478,5.478,0,0,0,225.5,189.637Z" transform="translate(-132.042 -81.318)" fill="#1d5189"/>
    <path id="Path_44282" data-name="Path 44282" d="M245.11,192.221a1.119,1.119,0,0,1-1.228-.983h.573a.547.547,0,0,0,.573.491c.41,0,.573-.246.573-.491,0-.819-1.8-.328-1.8-1.556a1.041,1.041,0,0,1,1.146-.982c.655,0,1.147.327,1.147.9H245.6c0-.246-.245-.409-.573-.491-.327,0-.573.164-.573.491,0,.737,1.8.328,1.8,1.556A1.055,1.055,0,0,1,245.11,192.221Z" transform="translate(-136.752 -81.445)" fill="#1d5189"/>
    <path id="Path_44283" data-name="Path 44283" d="M247.582,188.8h.573l1.228,2.7,1.228-2.7h.573v3.439h-.573v-2.374l-1.064,2.374h-.409l-1.064-2.374v2.374H247.5V188.8Z" transform="translate(-137.424 -81.464)" fill="#1d5189"/>
  </g>
</svg>
